<svg width="60" height="60" viewBox="0 0 60 60" fill="none" xmlns="http://www.w3.org/2000/svg">
<g filter="url(#filter0_f_1065_1162)">
<circle cx="30" cy="30" r="10" fill="#6CBF52"/>
</g>
<path d="M37 22H35V21C35 20.7348 34.8946 20.4804 34.7071 20.2929C34.5196 20.1054 34.2652 20 34 20C33.7348 20 33.4804 20.1054 33.2929 20.2929C33.1054 20.4804 33 20.7348 33 21V22H27V21C27 20.7348 26.8946 20.4804 26.7071 20.2929C26.5196 20.1054 26.2652 20 26 20C25.7348 20 25.4804 20.1054 25.2929 20.2929C25.1054 20.4804 25 20.7348 25 21V22H23C22.2044 22 21.4413 22.3161 20.8787 22.8787C20.3161 23.4413 20 24.2044 20 25V37C20 37.7956 20.3161 38.5587 20.8787 39.1213C21.4413 39.6839 22.2044 40 23 40H37C37.7956 40 38.5587 39.6839 39.1213 39.1213C39.6839 38.5587 40 37.7956 40 37V25C40 24.2044 39.6839 23.4413 39.1213 22.8787C38.5587 22.3161 37.7956 22 37 22ZM38 37C38 37.2652 37.8946 37.5196 37.7071 37.7071C37.5196 37.8946 37.2652 38 37 38H23C22.7348 38 22.4804 37.8946 22.2929 37.7071C22.1054 37.5196 22 37.2652 22 37V30H38V37ZM38 28H22V25C22 24.7348 22.1054 24.4804 22.2929 24.2929C22.4804 24.1054 22.7348 24 23 24H25V25C25 25.2652 25.1054 25.5196 25.2929 25.7071C25.4804 25.8946 25.7348 26 26 26C26.2652 26 26.5196 25.8946 26.7071 25.7071C26.8946 25.5196 27 25.2652 27 25V24H33V25C33 25.2652 33.1054 25.5196 33.2929 25.7071C33.4804 25.8946 33.7348 26 34 26C34.2652 26 34.5196 25.8946 34.7071 25.7071C34.8946 25.5196 35 25.2652 35 25V24H37C37.2652 24 37.5196 24.1054 37.7071 24.2929C37.8946 24.4804 38 24.7348 38 25V28Z" fill="black"/>
<defs>
<filter id="filter0_f_1065_1162" x="0" y="0" width="60" height="60" filterUnits="userSpaceOnUse" color-interpolation-filters="sRGB">
<feFlood flood-opacity="0" result="BackgroundImageFix"/>
<feBlend mode="normal" in="SourceGraphic" in2="BackgroundImageFix" result="shape"/>
<feGaussianBlur stdDeviation="10" result="effect1_foregroundBlur_1065_1162"/>
</filter>
</defs>
</svg>
