<svg width="60" height="60" viewBox="0 0 60 60" fill="none" xmlns="http://www.w3.org/2000/svg">
<g filter="url(#filter0_f_1065_1164)">
<circle cx="30" cy="30" r="10" fill="#6CBF52"/>
</g>
<path d="M30.3 30.22C30.8336 29.7581 31.2616 29.1869 31.5549 28.545C31.8482 27.9032 32 27.2057 32 26.5C32 25.1739 31.4732 23.9021 30.5355 22.9645C29.5979 22.0268 28.3261 21.5 27 21.5C25.6739 21.5 24.4021 22.0268 23.4645 22.9645C22.5268 23.9021 22 25.1739 22 26.5C22 27.2057 22.1518 27.9032 22.4451 28.545C22.7384 29.1869 23.1664 29.7581 23.7 30.22C22.3001 30.8539 21.1125 31.8775 20.279 33.1685C19.4455 34.4596 19.0015 35.9633 19 37.5C19 37.7652 19.1054 38.0196 19.2929 38.2071C19.4804 38.3946 19.7348 38.5 20 38.5C20.2652 38.5 20.5196 38.3946 20.7071 38.2071C20.8946 38.0196 21 37.7652 21 37.5C21 35.9087 21.6321 34.3826 22.7574 33.2574C23.8826 32.1321 25.4087 31.5 27 31.5C28.5913 31.5 30.1174 32.1321 31.2426 33.2574C32.3679 34.3826 33 35.9087 33 37.5C33 37.7652 33.1054 38.0196 33.2929 38.2071C33.4804 38.3946 33.7348 38.5 34 38.5C34.2652 38.5 34.5196 38.3946 34.7071 38.2071C34.8946 38.0196 35 37.7652 35 37.5C34.9985 35.9633 34.5545 34.4596 33.721 33.1685C32.8875 31.8775 31.6999 30.8539 30.3 30.22ZM27 29.5C26.4067 29.5 25.8266 29.3241 25.3333 28.9944C24.8399 28.6648 24.4554 28.1962 24.2284 27.6481C24.0013 27.0999 23.9419 26.4967 24.0576 25.9147C24.1734 25.3328 24.4591 24.7982 24.8787 24.3787C25.2982 23.9591 25.8328 23.6734 26.4147 23.5576C26.9967 23.4419 27.5999 23.5013 28.1481 23.7284C28.6962 23.9554 29.1648 24.3399 29.4944 24.8333C29.8241 25.3266 30 25.9067 30 26.5C30 27.2956 29.6839 28.0587 29.1213 28.6213C28.5587 29.1839 27.7956 29.5 27 29.5ZM36.74 29.82C37.38 29.0993 37.798 28.2091 37.9438 27.2563C38.0896 26.3036 37.9569 25.3291 37.5618 24.45C37.1666 23.5709 36.5258 22.8248 35.7165 22.3014C34.9071 21.7781 33.9638 21.4997 33 21.5C32.7348 21.5 32.4804 21.6054 32.2929 21.7929C32.1054 21.9804 32 22.2348 32 22.5C32 22.7652 32.1054 23.0196 32.2929 23.2071C32.4804 23.3946 32.7348 23.5 33 23.5C33.7956 23.5 34.5587 23.8161 35.1213 24.3787C35.6839 24.9413 36 25.7044 36 26.5C35.9986 27.0252 35.8593 27.5409 35.5961 27.9954C35.3328 28.4499 34.9549 28.8274 34.5 29.09C34.3517 29.1755 34.2279 29.2977 34.1404 29.4447C34.0528 29.5918 34.0045 29.7589 34 29.93C33.9958 30.0998 34.0349 30.2678 34.1137 30.4183C34.1924 30.5687 34.3081 30.6967 34.45 30.79L34.84 31.05L34.97 31.12C36.1754 31.6917 37.1923 32.596 37.901 33.7263C38.6096 34.8566 38.9805 36.1659 38.97 37.5C38.97 37.7652 39.0754 38.0196 39.2629 38.2071C39.4504 38.3946 39.7048 38.5 39.97 38.5C40.2352 38.5 40.4896 38.3946 40.6771 38.2071C40.8646 38.0196 40.97 37.7652 40.97 37.5C40.9782 35.9654 40.5938 34.4543 39.8535 33.1101C39.1131 31.7659 38.0413 30.6333 36.74 29.82Z" fill="black"/>
<defs>
<filter id="filter0_f_1065_1164" x="0" y="0" width="60" height="60" filterUnits="userSpaceOnUse" color-interpolation-filters="sRGB">
<feFlood flood-opacity="0" result="BackgroundImageFix"/>
<feBlend mode="normal" in="SourceGraphic" in2="BackgroundImageFix" result="shape"/>
<feGaussianBlur stdDeviation="10" result="effect1_foregroundBlur_1065_1164"/>
</filter>
</defs>
</svg>
