<svg width="60" height="60" viewBox="0 0 60 60" fill="none" xmlns="http://www.w3.org/2000/svg">
<g filter="url(#filter0_f_1065_1165)">
<circle cx="30" cy="30" r="10" fill="#6CBF52"/>
</g>
<path d="M36 31.18V28C35.9986 26.5831 35.4958 25.2125 34.5806 24.1308C33.6655 23.0491 32.3971 22.3261 31 22.09V21C31 20.7348 30.8946 20.4804 30.7071 20.2929C30.5196 20.1054 30.2652 20 30 20C29.7348 20 29.4804 20.1054 29.2929 20.2929C29.1054 20.4804 29 20.7348 29 21V22.09C27.6029 22.3261 26.3345 23.0491 25.4194 24.1308C24.5042 25.2125 24.0014 26.5831 24 28V31.18C23.4165 31.3863 22.911 31.7681 22.5529 32.2729C22.1949 32.7778 22.0017 33.3811 22 34V36C22 36.2652 22.1054 36.5196 22.2929 36.7071C22.4804 36.8946 22.7348 37 23 37H26.14C26.3703 37.8474 26.873 38.5954 27.5706 39.1287C28.2682 39.6621 29.1219 39.951 30 39.951C30.8781 39.951 31.7318 39.6621 32.4294 39.1287C33.127 38.5954 33.6297 37.8474 33.86 37H37C37.2652 37 37.5196 36.8946 37.7071 36.7071C37.8946 36.5196 38 36.2652 38 36V34C37.9983 33.3811 37.8051 32.7778 37.4471 32.2729C37.089 31.7681 36.5835 31.3863 36 31.18ZM26 28C26 26.9391 26.4214 25.9217 27.1716 25.1716C27.9217 24.4214 28.9391 24 30 24C31.0609 24 32.0783 24.4214 32.8284 25.1716C33.5786 25.9217 34 26.9391 34 28V31H26V28ZM30 38C29.651 37.9979 29.3086 37.9045 29.0068 37.7291C28.7051 37.5536 28.4545 37.3023 28.28 37H31.72C31.5455 37.3023 31.2949 37.5536 30.9932 37.7291C30.6914 37.9045 30.349 37.9979 30 38ZM36 35H24V34C24 33.7348 24.1054 33.4804 24.2929 33.2929C24.4804 33.1054 24.7348 33 25 33H35C35.2652 33 35.5196 33.1054 35.7071 33.2929C35.8946 33.4804 36 33.7348 36 34V35Z" fill="black"/>
<defs>
<filter id="filter0_f_1065_1165" x="0" y="0" width="60" height="60" filterUnits="userSpaceOnUse" color-interpolation-filters="sRGB">
<feFlood flood-opacity="0" result="BackgroundImageFix"/>
<feBlend mode="normal" in="SourceGraphic" in2="BackgroundImageFix" result="shape"/>
<feGaussianBlur stdDeviation="10" result="effect1_foregroundBlur_1065_1165"/>
</filter>
</defs>
</svg>
