<svg width="60" height="60" viewBox="0 0 60 60" fill="none" xmlns="http://www.w3.org/2000/svg">
<g filter="url(#filter0_f_1065_1166)">
<circle cx="30" cy="30" r="10" fill="#6CBF52"/>
</g>
<path d="M39.32 27.55L37.43 26.92L38.32 25.14C38.4102 24.9537 38.4404 24.744 38.4064 24.5398C38.3723 24.3356 38.2758 24.147 38.13 24L36 21.87C35.8522 21.7221 35.6618 21.6242 35.4555 21.5901C35.2493 21.556 35.0375 21.5875 34.85 21.68L33.07 22.57L32.44 20.68C32.3735 20.483 32.2472 20.3116 32.0787 20.1898C31.9102 20.0679 31.7079 20.0015 31.5 20H28.5C28.2904 19.9995 28.0858 20.0648 27.9154 20.1868C27.7449 20.3089 27.6171 20.4814 27.55 20.68L26.92 22.57L25.14 21.68C24.9537 21.5898 24.744 21.5596 24.5398 21.5936C24.3356 21.6277 24.147 21.7242 24 21.87L21.87 24C21.7221 24.1478 21.6242 24.3382 21.5901 24.5445C21.556 24.7507 21.5875 24.9625 21.68 25.15L22.57 26.93L20.68 27.56C20.483 27.6265 20.3116 27.7528 20.1898 27.9213C20.0679 28.0898 20.0015 28.2921 20 28.5V31.5C19.9995 31.7096 20.0648 31.9142 20.1868 32.0846C20.3089 32.2551 20.4814 32.3829 20.68 32.45L22.57 33.08L21.68 34.86C21.5898 35.0463 21.5596 35.256 21.5936 35.4602C21.6277 35.6644 21.7242 35.853 21.87 36L24 38.13C24.1478 38.2779 24.3382 38.3758 24.5445 38.4099C24.7507 38.444 24.9625 38.4125 25.15 38.32L26.93 37.43L27.56 39.32C27.6271 39.5186 27.7549 39.6911 27.9254 39.8132C28.0958 39.9352 28.3004 40.0005 28.51 40H31.51C31.7196 40.0005 31.9242 39.9352 32.0946 39.8132C32.2651 39.6911 32.3929 39.5186 32.46 39.32L33.09 37.43L34.87 38.32C35.0551 38.4079 35.2628 38.4369 35.4649 38.4029C35.667 38.3689 35.8538 38.2737 36 38.13L38.13 36C38.2779 35.8522 38.3758 35.6618 38.4099 35.4555C38.444 35.2493 38.4125 35.0375 38.32 34.85L37.43 33.07L39.32 32.44C39.517 32.3735 39.6884 32.2472 39.8103 32.0787C39.9321 31.9102 39.9985 31.7079 40 31.5V28.5C40.0005 28.2904 39.9352 28.0858 39.8132 27.9154C39.6911 27.7449 39.5186 27.6171 39.32 27.55ZM38 30.78L36.8 31.18C36.5241 31.2695 36.2709 31.418 36.0581 31.6151C35.8452 31.8122 35.6778 32.0533 35.5675 32.3216C35.4571 32.5899 35.4064 32.879 35.419 33.1688C35.4315 33.4586 35.5069 33.7422 35.64 34L36.21 35.14L35.11 36.24L34 35.64C33.7436 35.5122 33.4627 35.4411 33.1763 35.4313C32.89 35.4215 32.6049 35.4734 32.3403 35.5834C32.0758 35.6934 31.8379 35.8589 31.6429 36.0688C31.4479 36.2787 31.3003 36.5281 31.21 36.8L30.81 38H29.22L28.82 36.8C28.7305 36.5241 28.582 36.2709 28.3849 36.0581C28.1878 35.8452 27.9467 35.6778 27.6784 35.5675C27.4101 35.4571 27.1211 35.4064 26.8312 35.419C26.5414 35.4315 26.2578 35.5069 26 35.64L24.86 36.21L23.76 35.11L24.36 34C24.4931 33.7422 24.5685 33.4586 24.581 33.1688C24.5936 32.879 24.5429 32.5899 24.4325 32.3216C24.3222 32.0533 24.1548 31.8122 23.9419 31.6151C23.7291 31.418 23.4759 31.2695 23.2 31.18L22 30.78V29.22L23.2 28.82C23.4759 28.7305 23.7291 28.582 23.9419 28.3849C24.1548 28.1878 24.3222 27.9467 24.4325 27.6784C24.5429 27.4101 24.5936 27.1211 24.581 26.8312C24.5685 26.5414 24.4931 26.2578 24.36 26L23.79 24.89L24.89 23.79L26 24.36C26.2578 24.4931 26.5414 24.5685 26.8312 24.581C27.1211 24.5936 27.4101 24.5429 27.6784 24.4325C27.9467 24.3222 28.1878 24.1548 28.3849 23.9419C28.582 23.7291 28.7305 23.4759 28.82 23.2L29.22 22H30.78L31.18 23.2C31.2695 23.4759 31.418 23.7291 31.6151 23.9419C31.8122 24.1548 32.0533 24.3222 32.3216 24.4325C32.5899 24.5429 32.879 24.5936 33.1688 24.581C33.4586 24.5685 33.7422 24.4931 34 24.36L35.14 23.79L36.24 24.89L35.64 26C35.5122 26.2564 35.4411 26.5373 35.4313 26.8237C35.4215 27.11 35.4734 27.3951 35.5834 27.6597C35.6934 27.9242 35.8589 28.1621 36.0688 28.3571C36.2787 28.5521 36.5281 28.6997 36.8 28.79L38 29.19V30.78ZM30 26C29.2089 26 28.4355 26.2346 27.7777 26.6741C27.1199 27.1137 26.6072 27.7384 26.3045 28.4693C26.0017 29.2002 25.9225 30.0044 26.0769 30.7804C26.2312 31.5563 26.6122 32.269 27.1716 32.8284C27.731 33.3878 28.4437 33.7688 29.2196 33.9231C29.9956 34.0775 30.7998 33.9983 31.5307 33.6955C32.2616 33.3928 32.8864 32.8801 33.3259 32.2223C33.7654 31.5645 34 30.7911 34 30C34 28.9391 33.5786 27.9217 32.8284 27.1716C32.0783 26.4214 31.0609 26 30 26ZM30 32C29.6044 32 29.2178 31.8827 28.8889 31.6629C28.56 31.4432 28.3036 31.1308 28.1522 30.7654C28.0009 30.3999 27.9613 29.9978 28.0384 29.6098C28.1156 29.2219 28.3061 28.8655 28.5858 28.5858C28.8655 28.3061 29.2219 28.1156 29.6098 28.0384C29.9978 27.9613 30.3999 28.0009 30.7654 28.1522C31.1308 28.3036 31.4432 28.56 31.6629 28.8889C31.8827 29.2178 32 29.6044 32 30C32 30.5304 31.7893 31.0391 31.4142 31.4142C31.0391 31.7893 30.5304 32 30 32Z" fill="black"/>
<defs>
<filter id="filter0_f_1065_1166" x="0" y="0" width="60" height="60" filterUnits="userSpaceOnUse" color-interpolation-filters="sRGB">
<feFlood flood-opacity="0" result="BackgroundImageFix"/>
<feBlend mode="normal" in="SourceGraphic" in2="BackgroundImageFix" result="shape"/>
<feGaussianBlur stdDeviation="10" result="effect1_foregroundBlur_1065_1166"/>
</filter>
</defs>
</svg>
