<svg width="112" height="22" viewBox="0 0 112 22" fill="none" xmlns="http://www.w3.org/2000/svg">
<path d="M1.098 21.8601C0.778923 21.8601 0.516154 21.7574 0.309692 21.5522C0.103231 21.3469 0 21.0857 0 20.7684V1.0916C0 0.774384 0.103231 0.513146 0.309692 0.307887C0.516154 0.102629 0.778923 0 1.098 0H6.16569C7.77984 0 9.25322 0.270568 10.5858 0.811704C11.9372 1.33418 13.1009 2.08991 14.0769 3.07888C15.0529 4.04919 15.8037 5.19678 16.3292 6.52163C16.8735 7.84648 17.1457 9.31128 17.1457 10.916C17.1457 12.5208 16.8735 13.9949 16.3292 15.3384C15.8037 16.6633 15.0529 17.8202 14.0769 18.8092C13.1009 19.7795 11.9372 20.5352 10.5858 21.0763C9.25322 21.5988 7.77984 21.8601 6.16569 21.8601H1.098ZM2.196 19.9008H6.16569C7.89246 19.9008 9.41276 19.5182 10.7266 18.7532C12.0592 17.9695 13.1009 16.9059 13.8517 15.5623C14.6025 14.2002 14.9778 12.6514 14.9778 10.916C14.9778 9.18066 14.6025 7.64122 13.8517 6.29771C13.1009 4.93554 12.0592 3.87193 10.7266 3.10687C9.41276 2.34181 7.89246 1.95929 6.16569 1.95929H2.196V19.9008Z" fill="black"/>
<path d="M24.0583 21.8601C23.7205 21.8601 23.4483 21.7668 23.2419 21.5802C23.0542 21.3749 22.9603 21.1043 22.9603 20.7684V7.64122C22.9603 7.30534 23.0542 7.04411 23.2419 6.85751C23.4483 6.65225 23.7205 6.54962 24.0583 6.54962C24.3774 6.54962 24.6308 6.65225 24.8185 6.85751C25.0249 7.04411 25.1282 7.30534 25.1282 7.64122V20.7684C25.1282 21.1043 25.0249 21.3749 24.8185 21.5802C24.6308 21.7668 24.3774 21.8601 24.0583 21.8601ZM24.0302 3.63868C23.6172 3.63868 23.2606 3.4894 22.9603 3.19084C22.66 2.89228 22.5099 2.52841 22.5099 2.09924C22.5099 1.63274 22.66 1.26887 22.9603 1.00763C23.2794 0.727734 23.6454 0.587785 24.0583 0.587785C24.4525 0.587785 24.7997 0.727734 25.1 1.00763C25.4191 1.26887 25.5786 1.63274 25.5786 2.09924C25.5786 2.52841 25.4285 2.89228 25.1282 3.19084C24.8279 3.4894 24.4619 3.63868 24.0302 3.63868Z" fill="black"/>
<path d="M37.039 21.8601C36.5885 21.8601 36.2507 21.6175 36.0255 21.1323L29.7753 7.94911C29.6627 7.70653 29.6533 7.46395 29.7472 7.22137C29.841 6.9788 30.0287 6.7922 30.3102 6.66158C30.573 6.53096 30.8264 6.5123 31.0704 6.6056C31.3144 6.6989 31.5021 6.86684 31.6335 7.10942L37.6302 20.0127H36.4759L42.3882 7.10942C42.5008 6.84818 42.6885 6.68024 42.9513 6.6056C43.2328 6.5123 43.505 6.52163 43.7678 6.63359C44.0305 6.76421 44.2088 6.96014 44.3027 7.22137C44.3965 7.46395 44.3871 7.6972 44.2745 7.92112L38.1088 21.1323C37.8836 21.6175 37.527 21.8601 37.039 21.8601Z" fill="black"/>
<path d="M54.8942 22C53.3739 22 52.0225 21.6735 50.8401 21.0204C49.6764 20.3486 48.7567 19.4249 48.081 18.2494C47.4241 17.0738 47.0956 15.7303 47.0956 14.2188C47.0956 12.6887 47.4053 11.3452 48.0247 10.1883C48.6629 9.01272 49.5356 8.08906 50.643 7.4173C51.7504 6.74555 53.0267 6.40967 54.4719 6.40967C55.8984 6.40967 57.1372 6.73622 58.1882 7.38931C59.2581 8.02375 60.0839 8.91009 60.6658 10.0483C61.2476 11.1866 61.5385 12.4835 61.5385 13.9389C61.5385 14.2375 61.4447 14.4801 61.257 14.6667C61.0693 14.8346 60.8253 14.9186 60.525 14.9186H48.5596V13.1272H60.7502L59.5396 13.9949C59.5584 12.9126 59.3613 11.9423 58.9484 11.084C58.5355 10.2256 57.9442 9.55386 57.1747 9.0687C56.4239 8.58355 55.523 8.34097 54.4719 8.34097C53.4021 8.34097 52.4636 8.59288 51.6565 9.09669C50.8495 9.60051 50.2207 10.3003 49.7702 11.1959C49.3386 12.0729 49.1227 13.0806 49.1227 14.2188C49.1227 15.3571 49.3667 16.3647 49.8547 17.2417C50.3615 18.1187 51.0465 18.8092 51.9099 19.313C52.7733 19.8168 53.7681 20.0687 54.8942 20.0687C55.5699 20.0687 56.2456 19.9567 56.9213 19.7328C57.6158 19.4902 58.1695 19.1917 58.5824 18.8372C58.7888 18.6692 59.0235 18.5852 59.2862 18.5852C59.549 18.5666 59.7742 18.6319 59.9619 18.7812C60.2059 19.0051 60.3279 19.2477 60.3279 19.5089C60.3467 19.7701 60.2435 19.9941 60.0182 20.1807C59.3988 20.7031 58.6105 21.1416 57.6533 21.4962C56.6961 21.8321 55.7764 22 54.8942 22Z" fill="black"/>
<path d="M67.2329 12.4275C67.2892 11.2706 67.5895 10.2349 68.1338 9.32061C68.6969 8.40628 69.4195 7.68787 70.3016 7.16539C71.2026 6.64292 72.1973 6.38168 73.2859 6.38168C74.1493 6.38168 74.8156 6.50297 75.2849 6.74555C75.7541 6.98813 75.9324 7.34266 75.8198 7.80916C75.7447 8.08906 75.6133 8.27566 75.4256 8.36896C75.2567 8.46226 75.0409 8.49958 74.7781 8.48092C74.5341 8.46226 74.2526 8.4436 73.9335 8.42494C72.8824 8.33164 71.9439 8.4436 71.1181 8.76081C70.311 9.05937 69.6635 9.52587 69.1755 10.1603C68.7063 10.7947 68.4716 11.5505 68.4716 12.4275H67.2329ZM67.4018 21.8601C67.0639 21.8601 66.8012 21.7668 66.6135 21.5802C66.4258 21.3936 66.3319 21.1323 66.3319 20.7964V7.61323C66.3319 7.27735 66.4258 7.01612 66.6135 6.82952C66.8012 6.64292 67.0639 6.54962 67.4018 6.54962C67.7396 6.54962 68.0024 6.64292 68.1901 6.82952C68.3778 7.01612 68.4716 7.27735 68.4716 7.61323V20.7964C68.4716 21.1323 68.3778 21.3936 68.1901 21.5802C68.0024 21.7668 67.7396 21.8601 67.4018 21.8601Z" fill="black"/>
<path d="M85.7302 22C84.6228 22 83.5248 21.8134 82.4362 21.4402C81.3475 21.067 80.4654 20.5072 79.7897 19.7608C79.5832 19.5369 79.4988 19.285 79.5363 19.0051C79.5739 18.7252 79.7146 18.4826 79.9586 18.2774C80.2214 18.0908 80.4935 18.0161 80.7751 18.0534C81.0566 18.0908 81.2912 18.212 81.4789 18.4173C81.9294 18.9398 82.5206 19.341 83.2526 19.6209C84.0034 19.9008 84.8292 20.0407 85.7302 20.0407C87.1191 20.0407 88.1232 19.8075 88.7426 19.341C89.362 18.8558 89.6811 18.2774 89.6998 17.6056C89.6998 16.9338 89.3808 16.3834 88.7426 15.9542C88.1045 15.5064 87.0534 15.1612 85.5894 14.9186C83.6937 14.62 82.3048 14.0975 81.4226 13.3511C80.5405 12.6047 80.0994 11.7184 80.0994 10.6921C80.0994 9.74046 80.3528 8.94741 80.8595 8.31298C81.3663 7.67854 82.042 7.20271 82.8866 6.8855C83.7312 6.56828 84.6603 6.40967 85.6738 6.40967C86.9314 6.40967 88.0106 6.62426 88.9115 7.05343C89.8312 7.48261 90.5726 8.06107 91.1357 8.78881C91.3234 9.03138 91.3985 9.28329 91.3609 9.54453C91.3234 9.80577 91.1732 10.0204 90.9105 10.1883C90.6852 10.3189 90.4225 10.3656 90.1221 10.3282C89.8406 10.2723 89.5966 10.1323 89.3901 9.9084C88.9209 9.36726 88.3766 8.9754 87.7572 8.73283C87.1378 8.47159 86.4246 8.34097 85.6175 8.34097C84.5852 8.34097 83.7594 8.55556 83.14 8.98473C82.5206 9.39525 82.2109 9.91773 82.2109 10.5522C82.2109 10.9813 82.3235 11.3545 82.5488 11.6718C82.7928 11.989 83.1963 12.2689 83.7594 12.5114C84.3412 12.754 85.1483 12.9593 86.1806 13.1272C87.5883 13.3511 88.6957 13.687 89.5028 14.1349C90.3286 14.564 90.9105 15.0772 91.2483 15.6743C91.6049 16.2528 91.7832 16.8872 91.7832 17.5776C91.7832 18.4546 91.5205 19.229 90.9949 19.9008C90.4882 20.5539 89.7749 21.067 88.8552 21.4402C87.9543 21.8134 86.9126 22 85.7302 22Z" fill="black"/>
<path d="M108.59 17.1863C107.334 18.0435 106.034 18.5356 104.689 18.6629C103.349 18.7641 102.069 18.5197 100.848 17.9297C99.6424 17.3291 98.6137 16.4047 97.7616 15.1563C96.8989 13.8926 96.3973 12.6083 96.2566 11.3036C96.1209 9.9729 96.321 8.71797 96.8569 7.53884C97.3928 6.3597 98.2576 5.36274 99.4512 4.54795C100.629 3.74375 101.837 3.31506 103.073 3.2619C104.314 3.18275 105.496 3.44921 106.618 4.0613C107.741 4.67338 108.712 5.58048 109.533 6.78259C109.701 7.02918 109.76 7.28244 109.71 7.54237C109.65 7.78689 109.496 7.99381 109.248 8.16311L99.3652 14.9089L98.3553 13.4294L108.424 6.55661L107.913 7.95577C107.319 7.05131 106.609 6.36101 105.784 5.88486C104.959 5.40872 104.092 5.18722 103.183 5.22036C102.289 5.24292 101.408 5.55049 100.54 6.14306C99.6565 6.74622 99.0234 7.48335 98.6408 8.35448C98.2583 9.2256 98.1335 10.158 98.2664 11.1518C98.4043 12.1195 98.7941 13.0734 99.4358 14.0135C100.078 14.9536 100.847 15.6483 101.745 16.0975C102.658 16.5362 103.613 16.7202 104.61 16.6495C105.607 16.5789 106.571 16.2261 107.501 15.5912C108.059 15.2103 108.554 14.7369 108.986 14.171C109.422 13.5791 109.711 13.0204 109.853 12.4948C109.928 12.2397 110.075 12.038 110.292 11.8899C110.498 11.7263 110.721 11.6533 110.96 11.6708C111.288 11.7182 111.526 11.8497 111.673 12.0655C111.836 12.2707 111.877 12.5138 111.796 12.7949C111.579 13.5756 111.175 14.3823 110.584 15.2147C109.983 16.0318 109.318 16.689 108.59 17.1863Z" fill="#6CBF52"/>
</svg>
